<svg xmlns="http://www.w3.org/2000/svg" data-name="Layer 2" viewBox="0 0 76.28 108.97"><g data-name="Layer 1"><g data-name="ss2218573587 3"><path fill="transparent" d="M0 0h76.28v108.97H0V0z"/><path fill="#f8f8f8" d="M75.93 60.68h-4.78V20H56.32v-4.75h19.61v45.42zM22.27 20.82l-3.53 2.48c-1.52-2.41-3.67-3.82-6.54-3.82-4.26 0-7.38 3.1-7.38 7.51s3.12 7.43 7.38 7.43c2.88 0 5.02-1.41 6.54-3.82l3.53 2.48c-1.97 3.48-5.68 5.64-10.11 5.64C5.37 38.72.01 33.63.01 26.96S5.38 15.19 12.2 15.19c4.4 0 8.07 2.17 10.08 5.64zm30.35 6.13c0 6.68-5.47 11.77-12.18 11.77s-12.12-5.09-12.12-11.77 5.4-11.77 12.12-11.77 12.18 5.09 12.18 11.77zm-19.5 0c0 4.41 3.08 7.47 7.34 7.47s7.34-3.06 7.34-7.47-3.15-7.47-7.34-7.47-7.34 3.1-7.34 7.47zm13.44 62.64h-9.11l-1.25 2.88h-4.9l9.96-22.56h1.52l9.92 22.56h-4.89l-1.25-2.88zm-4.55-11.18-2.94 7.45h5.88l-2.94-7.45zm34.27 7.44c0 3.9-3.06 6.63-7.46 6.63H58.71V69.92h8.04c4.19 0 7.19 2.57 7.19 6.29 0 1.68-.62 3.04-1.69 4.06 2.51.89 4.02 2.84 4.02 5.58zm-13.1-11.96v5.16h3.2c1.92 0 2.96-1.06 2.96-2.59s-1.03-2.57-2.96-2.57h-3.2zm8.53 11.79c0-1.74-1.2-2.84-3.23-2.84h-5.29v5.68h5.29c2.03 0 3.23-1.06 3.23-2.84zm-45.43 6.8H.37V47.37h4.79v40.35h21.12v4.76zM7.76 1.92V.64H.37v1.29H3.4v4.76H.37v1.3h7.39v-1.3H4.73V1.92h3.03zm18.42 0V.64h-7.45v7.34h7.45V6.7h-6.12V4.96h4.78V3.67h-4.78V1.93h6.12zM13.32.64H9.71v7.34h3.54c2.29-.03 3.87-1.62 3.87-3.68S15.58.7 13.32.64zm-.07 6.07h-2.22V1.9h2.24c1.46.03 2.4 1.04 2.4 2.42s-.95 2.37-2.42 2.4zM31.43.31c-2.24 0-4.06 1.79-4.06 3.99s1.82 3.99 4.06 3.99 4.06-1.78 4.06-3.99c0-2.2-1.82-3.99-4.06-3.99zm0 6.61c-1.47 0-2.66-1.17-2.66-2.61s1.19-2.61 2.66-2.61 2.66 1.17 2.66 2.61a2.648 2.648 0 0 1-2.66 2.61zm-24.7 93.37-2.1 5.08-2.11-5.08H.58l3.77 8.53h.58l3.76-8.53H6.75zm10.31 0h-5.68v8.38h5.83v-1.55h-4.1V105h2.9v-1.46h-2.9v-1.7h3.95v-1.55zm8.64 0v4.99l-4.89-5.14h-.56v8.53h1.73v-5.03l4.88 5.18h.58v-8.53h-1.73zm11.53 0h-7.13v1.55h2.7v6.83h1.73v-6.83h2.71v-1.55zm9.75 0h-1.72v5.04c0 1.26-.79 1.9-1.85 1.9s-1.85-.65-1.85-1.9v-5.04h-1.73v4.91c0 2.25 1.52 3.62 3.58 3.62s3.58-1.37 3.58-3.62v-4.91zm10.52 8.38-2.39-3.3c.91-.44 1.48-1.3 1.48-2.37 0-1.64-1.26-2.71-3.04-2.71h-3.17v8.38h1.73v-2.96h1.27l2.19 2.96h1.94zm-5.4-6.87h1.44c.81 0 1.28.49 1.28 1.19s-.47 1.21-1.28 1.21h-1.44v-2.4zm13.67-1.51h-5.68v8.38h5.83v-1.55h-4.1V105h2.9v-1.46h-2.9v-1.7h3.95v-1.55zm5.83-.15c-1.59 0-2.8.93-2.8 2.37 0 1.18.84 1.87 2.04 2.41l.91.41c.66.3 1.07.49 1.07 1.04 0 .58-.46.93-1.2.93-1.01 0-1.61-.58-2.07-1.22l-1.19.89c.63 1.12 1.8 1.85 3.26 1.85 1.67 0 2.95-.95 2.95-2.51 0-1.19-.75-1.87-2.08-2.45l-.96-.42c-.61-.28-.98-.48-.98-.97 0-.56.49-.81 1.05-.81.69 0 1.2.36 1.61.97l1.18-.9c-.5-.91-1.45-1.59-2.79-1.59z"/></g></g></svg>