<svg xmlns="http://www.w3.org/2000/svg" id="Layer_2" data-name="Layer 2" viewBox="0 0 379.7 60.68"><defs><style>.cls-1{fill:#f8f8f8;stroke-width:0}</style></defs><g id="Layer_1-2" data-name="Layer 1"><g id="protocol_labs" data-name="protocol labs"><path d="M14.29.1 2.2 6.97c-.41.14-.41.69 0 .82l28.31 16.22c.27.14.69.14.96 0l12.09-6.87c.41-.14.41-.69 0-.82L15.39.1c-.41-.14-.69-.14-1.1 0zm32.3 0L34.5 6.97c-.41.14-.41.69 0 .82l12.23 7.15c.27.14.69.14.96 0l12.09-6.87c.41-.14.41-.69 0-.82L47.55.24c-.27-.27-.69-.27-.96-.14zM32.43 27.72V41.6c0 .41.41.69.82.41L45.48 35c.14-.14.27-.27.27-.41V20.3c0-.41-.41-.69-.82-.41l-11.96 6.87c-.41.27-.55.55-.55.96z" class="cls-1"/><path d="m48.92 17.56 12.09-6.87c.27-.14.82 0 .82.41v32.43c0 .41-.14.69-.55.82L33.11 60.57c-.27.14-.82 0-.82-.41V46.28c0-.41.14-.69.55-.82l15.12-8.66c.27-.14.55-.55.55-.96V18.52c0-.41.14-.69.41-.96zM29.68 27.59v14.29c0 .27-.27.41-.55.27l-14.84-8.52c-.27-.14-.82 0-.82.41v16.77c0 .41-.41.69-.82.41L.55 44.35c-.27-.14-.55-.55-.55-.82V10.96c0-.41.41-.69.82-.41l28.31 16.22c.27.14.55.55.55.82z" class="cls-1"/><path d="m16.9 38.31 12.09 7.01c.27.14.55.55.55.82v14.02c0 .41-.41.69-.82.41l-12.09-7.01c-.27-.14-.55-.55-.55-.82V38.86c.14-.41.55-.69.82-.55zm91.8-17.18c0 5.91-3.99 9.34-8.79 9.89-1.65.14-2.75.27-4.67.27h-4.81v12.23h-6.46V10.96h11.27c1.92 0 3.16 0 4.67.27 4.95.55 8.79 3.85 8.79 9.89zm-6.87 0c0-3.02-1.65-4.53-3.85-4.81-.69-.14-1.65-.14-2.89-.14h-4.67v9.89h4.67c1.24 0 2.2 0 2.89-.14 2.34-.41 3.85-1.79 3.85-4.81zm24.6-3.16v5.22c-5.36-.41-8.11 2.06-8.11 8.79v11.41h-6.46V18.38h6.46v4.53l1.92-3.44c1.24-1.1 2.89-1.65 4.26-1.65.82 0 1.37 0 1.92.14zm27.07 12.92c0 7.56-4.67 13.19-12.92 13.19s-12.92-5.63-12.92-13.19 4.67-13.19 12.92-13.19 12.92 5.63 12.92 13.19zm-6.73 0c0-5.36-2.34-8.66-6.18-8.66s-6.18 3.16-6.18 8.66 2.34 8.66 6.18 8.66c3.85-.14 6.18-3.3 6.18-8.66zm18.41 3.57v2.2c.14 2.47 1.1 3.02 4.67 2.75v4.26c-1.51.27-2.89.27-4.26.27-4.81 0-6.6-1.65-6.87-5.08-.14-1.1-.14-2.2-.14-3.57V22.92h-3.71v-4.26h3.71v-8.25h6.46v8.25h5.22v4.26h-5.22v11.54h.14zm32.71-3.57c0 7.56-4.67 13.19-12.92 13.19s-12.92-5.63-12.92-13.19 4.67-13.19 12.92-13.19 12.92 5.63 12.92 13.19zm-6.6 0c0-5.36-2.34-8.66-6.18-8.66s-6.18 3.16-6.18 8.66 2.34 8.66 6.18 8.66c3.71-.14 6.18-3.3 6.18-8.66zm32.84-3.44h-6.32c-.55-3.57-2.47-5.08-5.22-5.08-3.3 0-5.63 2.61-5.63 8.38 0 6.18 2.34 8.79 5.63 8.79 2.47 0 4.4-1.65 5.08-4.81h6.46c-1.1 6.18-5.63 9.34-11.96 9.34-6.87 0-11.96-4.26-11.96-12.92s5.63-13.33 12.51-13.33c6.73-.14 10.99 3.99 11.41 9.62zm28.18 3.44c0 7.56-4.67 13.19-12.92 13.19s-12.92-5.63-12.92-13.19 4.67-13.19 12.92-13.19 12.92 5.63 12.92 13.19zm-6.74 0c0-5.36-2.34-8.66-6.18-8.66s-6.18 3.16-6.18 8.66 2.34 8.66 6.18 8.66c3.85-.14 6.18-3.3 6.18-8.66zm9.62 12.5V10.27h6.46v33.12h-6.46zm46.59 0h-23.36V10.27h6.46v27.76h16.9v5.36zm17.45-3.71-1.24 2.61c-1.79 1.24-3.85 1.65-6.18 1.65-4.26 0-7.97-2.47-7.97-7.28 0-5.5 4.67-8.66 13.74-8.66h1.65v-.55c0-.69 0-1.51-.14-2.34-.14-1.79-1.37-3.02-3.85-3.02-2.61 0-3.99 1.51-4.12 4.26h-6.32c.14-5.63 4.81-8.79 10.72-8.79 7.01 0 9.62 3.02 10.03 7.42.14 1.24.14 2.47.14 3.85v8.11c0 1.92.14 3.57.41 6.32h-6.32l-.55-3.57zm0-5.5v-2.06c-5.22-.41-8.66.82-8.66 4.12 0 2.2 1.51 3.3 3.85 3.3 2.61-.14 4.81-1.92 4.81-5.36zm37.24-3.71c0 9.07-5.5 13.6-11.96 13.6-2.06 0-4.53-.55-5.91-1.37l-1.65-2.61v3.3h-6.46V10.27h6.46v11.96l1.92-2.75c1.37-1.1 3.99-1.79 6.46-1.79 7.01 0 11.13 5.36 11.13 12.78zm-6.73.42c0-5.08-2.47-8.52-6.32-8.52-3.57 0-6.46 2.2-6.46 8.25v1.24c0 5.63 3.3 7.7 6.18 7.7 3.85-.14 6.6-2.89 6.6-8.66zm29.54-5.23h-6.46c-.41-2.34-1.65-3.57-3.85-3.57-1.92 0-3.02 1.1-3.02 2.61 0 1.92 1.51 2.89 5.63 3.85 5.08 1.37 8.11 3.44 8.11 7.97 0 5.08-4.53 7.42-10.31 7.42s-10.31-2.61-10.99-8.25h6.46c.55 2.75 2.34 3.99 4.67 3.99 2.06 0 3.71-.82 3.71-2.75s-1.65-3.02-5.91-4.12c-4.67-1.24-7.83-3.16-7.83-7.56 0-4.81 3.99-7.7 9.89-7.7 5.91.14 9.34 3.57 9.89 8.11z" class="cls-1"/></g></g></svg>