<svg xmlns="http://www.w3.org/2000/svg" id="Layer_2" data-name="Layer 2" viewBox="0 0 259.15 60.07"><defs><style>.cls-1{fill:#f8f8f8;stroke-width:0}</style></defs><g id="Layer_1-2" data-name="Layer 1"><g id="deepmind"><path d="M60.04 30.03c0 11.1-6.02 20.78-14.98 25.98 4.32-4.24 6.89-10.32 6.35-17.08-.87-11.03-11.27-20.01-20.71-20.01-8.78 0-12.21 7.66-11.36 12.86.32 1.91 1.14 3.7 2.38 5.19-1.64-.88-3.16-1.97-4.52-3.25-3.8-3.54-6.11-8.08-6.48-12.76C9.89 10.6 17.55 0 30.35 0c4.24 0 8.71 1.08 12.46 2.85 10.18 4.81 17.23 15.18 17.23 27.18z" class="cls-1"/><path d="M49.31 39.11c.82 10.35-6.84 20.95-19.62 20.96-4.24 0-8.71-1.08-12.46-2.85C7.05 52.4 0 42.04 0 30.04 0 18.94 6.02 9.25 14.96 4.05c-4.32 4.24-6.89 10.33-6.35 17.08.87 11.03 11.27 20.01 20.71 20.01 8.78 0 12.21-7.66 11.36-12.86-.32-1.91-1.14-3.7-2.38-5.19 1.64.88 3.16 1.97 4.52 3.25 3.8 3.54 6.11 8.08 6.48 12.76zm35.33-24.09c10.55 0 15.41 5.8 15.41 15.06S95.2 45.05 84.64 45.05h-9.57V15.02h9.57zm11.07 15.06c0-7.13-2.88-11.5-11.2-11.5h-5.19v22.86h5.2c8.33 0 11.2-4.29 11.19-11.36zm17.01-6.83c6.26 0 10.21 4.63 10.21 10.13 0 .6 0 1.24-.04 2.01H106.2c.26 4.33 3.17 6.65 6.48 6.65 2.66 0 4.54-1.37 5.41-3.47h4.24c-1.15 3.99-4.62 7-9.65 7-6.27 0-10.64-4.42-10.64-11.07s4.33-11.24 10.68-11.24zm-6.43 9.14h12.43c-.17-3.47-2.7-5.62-6.05-5.62s-5.92 1.92-6.39 5.62zm29.56-9.14c6.26 0 10.21 4.63 10.21 10.13 0 .6 0 1.24-.04 2.01h-16.69c.26 4.33 3.17 6.65 6.48 6.65 2.66 0 4.54-1.37 5.41-3.47h4.24c-1.16 3.99-4.63 7-9.65 7-6.27 0-10.64-4.42-10.64-11.07s4.33-11.24 10.68-11.24zm6 9.14c-.17-3.47-2.7-5.62-6.05-5.62s-5.93 1.92-6.4 5.62h12.44zm29.04 2.06c0 6.44-4.28 11.11-10.55 11.11-3.39 0-6.05-1.42-7.51-3.86v12.77h-4.25V23.76h3.82l.43 3.39c1.33-2.06 3.73-3.9 7.55-3.9 6.22 0 10.51 4.76 10.51 11.2zm-4.33-.05c0-4.42-2.83-7.47-6.87-7.47s-6.87 3.05-6.87 7.47 2.87 7.47 6.87 7.47 6.87-3 6.87-7.47zm32.46-19.38h4.97v30.03h-4.24V22.44l-9.44 18.32h-3.26l-9.48-18.32v22.61h-4.24V15.02h4.97l10.38 20.29 10.34-20.29zm8.28 30.03h4.24V23.77h-4.24v21.28zm4.93-28.23c0 1.54-1.2 2.7-2.83 2.7s-2.79-1.15-2.79-2.7 1.2-2.66 2.79-2.66 2.83 1.12 2.83 2.66zm22.27 15.95v12.27h-4.2V33.2c0-4.2-1.76-6.31-5.2-6.31s-6.01 2.53-6.01 7.17v10.98h-4.25V23.76h3.77l.3 3.73c1.37-2.61 4.03-4.24 7.34-4.24 5.11 0 8.24 3.13 8.25 9.52zm24.65-18.71v30.89h-3.81l-.43-3.39c-1.38 2.06-3.78 3.9-7.6 3.9-6.23 0-10.47-4.76-10.47-11.2s4.24-11.11 10.51-11.11c3.43 0 6.09 1.42 7.55 3.86V14.06h4.25zm-4.3 20.24c0-4.46-2.83-7.47-6.87-7.47s-6.87 3-6.87 7.47 2.87 7.47 6.87 7.47 6.86-3.04 6.87-7.47z" class="cls-1"/></g></g></svg>