<svg xmlns="http://www.w3.org/2000/svg" data-name="Layer 2" viewBox="0 0 126.66 39.94"><path fill="#f8f8f8" d="M120.77 39.37h5.89V.04h-5.89v39.34zm-24.75-8.08c0-3.1 2.87-4.35 8.99-4.99l4.27-.49v2.68c0 4.01-2.57 7.18-7.52 7.18-3.82 0-5.74-2.08-5.74-4.38m-5.9.34c0 4.61 3.78 8.31 9.94 8.31 4.65 0 7.82-1.51 9.79-3.89.04 1.17.15 2.27.38 3.33h5.55c-.68-2.68-.6-6.01-.6-9.56v-7.26c0-9.82-4.95-13-11.79-13-6.31 0-11.41 3.82-12.47 9.67h5.74c.49-3.21 3.02-5.06 6.57-5.06 3.82 0 6.08 1.62 6.08 7.26v.26l-5.4.6c-9.56 1.06-13.79 4.12-13.79 9.33m-15.57 7.75h5.89V25.65c0-8.84 3.25-11.64 8.73-10.84V9.94c-4.57-.34-7.26 1.62-8.73 5.74v-5.52h-5.89v29.21zM49.09 27.24V10.16H43.2v17.99c0 8.09 4.04 11.79 10.05 11.79 4.23 0 7.52-1.85 9.45-5.4v4.84h5.89V10.13H62.7v16.1c0 5.89-2.87 9.11-7.37 9.11-4.01 0-6.23-2.57-6.23-8.09M31.67 39.37h5.89V.04h-5.89v39.34zM5.89 19.42V4.76h5.21c6.76 0 10.28 2.08 10.28 7.37s-3.55 7.29-10.28 7.29H5.89zM0 .04v39.34h5.89V24.19h5.21c10.13 0 16.21-3.93 16.21-12.09S21.24 0 11.11 0H0v.04z" data-name="Layer 1"/></svg>