<svg xmlns="http://www.w3.org/2000/svg" data-name="Layer 2" viewBox="0 0 228.33 44.44"><g data-name="Layer 1"><path fill="#99dbcf" d="M220.43 15.56c-2.02 0-4.03-.76-5.59-2.28-3.08-3.04-3.08-7.99 0-11 3.08-3.04 8.1-3.04 11.19 0s3.08 7.99 0 11a7.995 7.995 0 0 1-5.59 2.28m-.01-10.58c-.72 0-1.45.27-2.02.8-1.1 1.1-1.1 2.85 0 3.96s2.89 1.1 4 0 1.1-2.85 0-3.96c-.53-.49-1.26-.8-1.98-.8"/><path fill="#f8f8f8" d="M199.01 37.97c-5.1 0-9.25-4.07-9.25-9.09s4.15-9.09 9.25-9.09 9.25 4.07 9.25 9.09c-.04 5.02-4.15 9.09-9.25 9.09zm0-24.69c-8.75 0-15.83 6.96-15.83 15.56s7.08 15.56 15.83 15.56 15.83-6.96 15.83-15.56-7.12-15.56-15.83-15.56zM47.07 37.1c-1.1-.95-1.48-2.4-1.48-3.77V19.52h6.09v-5.86h-6.09V6.39h-6.51v7.27h-3.84v5.86h3.84v13.81c0 6.85 4.26 11.07 11.26 11.07.46 0 .99 0 1.41-.04l-.11-6.16c-1.41.04-3.39-.11-4.57-1.1m23.21.87c-5.1 0-9.25-4.07-9.25-9.09s4.15-9.09 9.25-9.09 9.25 4.07 9.25 9.09-4.15 9.09-9.25 9.09zm0-24.69c-8.75 0-15.83 6.96-15.83 15.56S61.53 44.4 70.28 44.4s15.83-6.96 15.83-15.56-7.08-15.56-15.83-15.56zm96.61 24.69c-5.1 0-9.25-4.07-9.25-9.09s4.15-9.09 9.25-9.09c3.39 0 6.35 1.79 7.95 4.49l5.67-3.27c-2.74-4.6-7.84-7.69-13.66-7.69-8.75 0-15.83 6.96-15.83 15.56s7.08 15.56 15.83 15.56c5.86 0 10.96-3.12 13.7-7.76l-5.71-3.27c-1.52 2.7-4.53 4.57-7.95 4.57m-45.13-24.85c-3.61 0-6.96 1.41-9.47 3.92-2.59-2.63-5.59-3.92-9.09-3.92h-.04c-2.93 0-5.63 1.64-6.81 2.97v-2.4H90v30.55h6.66V25.41c.11-3.65 2.4-5.82 6.16-5.82 3.27 0 6.16 2.89 6.16 6.16v18.49h6.66V25.29c0-3.04 2.89-5.71 6.2-5.71s6.16 2.89 6.16 6.16v18.49h6.66V25.36c-.04-7.23-5.33-12.25-12.9-12.25m18.23 30.95h6.47V13.7h-6.47v30.36zM15.83 37.97c-5.1 0-9.25-4.07-9.25-9.09s4.15-9.09 9.25-9.09 9.25 4.07 9.25 9.09-4.15 9.09-9.25 9.09zm8.9-21.53c-2.44-1.86-5.59-3.16-8.9-3.16C7.08 13.28 0 20.24 0 28.84S7.08 44.4 15.83 44.4c3.31 0 6.58-1.33 8.9-3.16v2.78h6.47V13.7h-6.47v2.74z"/></g></svg>