<svg xmlns="http://www.w3.org/2000/svg" data-name="Layer 2" viewBox="0 0 274.89 39.27"><defs><clipPath id="a"><path fill="none" stroke-width="0" d="M0 0h274.89v39.27H0z"/></clipPath></defs><g clip-path="url(#a)" data-name="Layer 1"><path fill="#f8f8f8" d="M48.13 5.34h6.9L66.1 33.11V5.34h3.6v28.59h-7.15L51.73 6.36v27.57h-3.6V5.34zm78.08 16.75v-4.9c0-7.8 4.08-12.21 11.27-12.21s10.62 4.04 11.1 10.29h-3.71c-.45-3.96-2.37-6.82-7.39-6.82-5.51 0-7.59 3.39-7.59 8.74v4.9c0 5.35 2.08 8.74 7.59 8.74 4.49 0 7.52-2.08 7.52-8.86v-.2h-7.56V18.5h11.23v3.27c0 7.43-3.51 12.54-11.19 12.54-7.19 0-11.27-4.41-11.27-12.21zm39.97-16.75h10.9c5.31 0 8.65 2.82 8.65 7.68 0 5.39-3.35 7.89-8.65 7.89h-6.16l16.34 13.03h-5.84l-11.64-9.52v9.52h-3.6V5.34zm10.7 12.21c3.06 0 5.14-1.06 5.14-4.49s-2.08-4.45-5.14-4.45h-7.11v8.95h7.11zm67.71-11.19v27.57h-3.6V5.34h6.82l7.43 27.57 7.43-27.57h6.82v28.59h-3.6V6.36l-7.18 27.57h-6.94l-7.19-27.57h.02zM25.64 26.54H13.63l-2.21 7.39H7.46l8.91-28.59h6.61l8.82 28.59h-3.96l-2.21-7.39zm-.98-3.27L19.63 6.36 14.6 23.27h10.05zm79.52 3.27H92.17l-2.21 7.39H86l8.91-28.59h6.61l8.82 28.59h-3.96l-2.21-7.39zm-.99-3.27L98.16 6.36l-5.03 16.91h10.05zm118.8 3.27h-12.01l-2.21 7.39h-3.96l8.91-28.59h6.61l8.82 28.59h-3.96l-2.21-7.39zm-.98-3.27-5.02-16.91-5.03 16.91h10.05z"/></g></svg>